<?xml version="1.0" encoding="UTF-8"?>
<svg xmlns="http://www.w3.org/2000/svg" width="1200" height="675" viewBox="0 0 1200 675" role="img" data-technology-level="pre-warp">
  <title>Pre-Warp starting technology</title>
  <desc>Surface launch complex and primitive orbital infrastructure with no interstellar starting fleet.</desc>
  <defs>
    <radialGradient id="bg" cx="50%" cy="42%" r="78%"><stop offset="0" stop-color="#183d58"/><stop offset="0.58" stop-color="#0b2235"/><stop offset="1" stop-color="#050c14"/></radialGradient>
    <linearGradient id="accent" x1="0" y1="0" x2="1" y2="1"><stop stop-color="#f0a14d"/><stop offset="1" stop-color="#7b3f25"/></linearGradient>
    <radialGradient id="glow"><stop offset="0" stop-color="#f0a14d" stop-opacity="0.95"/><stop offset="1" stop-color="#7b3f25" stop-opacity="0"/></radialGradient>
    <linearGradient id="metal" x1="0" y1="0" x2="1" y2="1"><stop stop-color="#b9d5df"/><stop offset="0.45" stop-color="#476b7c"/><stop offset="1" stop-color="#162c3a"/></linearGradient>
    <filter id="softGlow" x="-40%" y="-40%" width="180%" height="180%"><feGaussianBlur stdDeviation="14"/></filter>
  </defs>
  <rect width="1200" height="675" fill="url(#bg)"/>
  <g aria-hidden="true"><circle cx="28" cy="24" r="1" fill="#e8f8ff" opacity="0.25"/><circle cx="177" cy="107" r="2" fill="#e8f8ff" opacity="0.36"/><circle cx="326" cy="190" r="3" fill="#e8f8ff" opacity="0.47"/><circle cx="475" cy="273" r="1" fill="#e8f8ff" opacity="0.58"/><circle cx="624" cy="356" r="2" fill="#e8f8ff" opacity="0.69"/><circle cx="773" cy="439" r="3" fill="#e8f8ff" opacity="0.25"/><circle cx="922" cy="522" r="1" fill="#e8f8ff" opacity="0.36"/><circle cx="1071" cy="85" r="2" fill="#e8f8ff" opacity="0.47"/><circle cx="80" cy="168" r="3" fill="#e8f8ff" opacity="0.58"/><circle cx="229" cy="251" r="1" fill="#e8f8ff" opacity="0.69"/><circle cx="378" cy="334" r="2" fill="#e8f8ff" opacity="0.25"/><circle cx="527" cy="417" r="3" fill="#e8f8ff" opacity="0.36"/><circle cx="676" cy="500" r="1" fill="#e8f8ff" opacity="0.47"/><circle cx="825" cy="63" r="2" fill="#e8f8ff" opacity="0.58"/><circle cx="974" cy="146" r="3" fill="#e8f8ff" opacity="0.69"/><circle cx="1123" cy="229" r="1" fill="#e8f8ff" opacity="0.25"/><circle cx="132" cy="312" r="2" fill="#e8f8ff" opacity="0.36"/><circle cx="281" cy="395" r="3" fill="#e8f8ff" opacity="0.47"/><circle cx="430" cy="478" r="1" fill="#e8f8ff" opacity="0.58"/><circle cx="579" cy="41" r="2" fill="#e8f8ff" opacity="0.69"/><circle cx="728" cy="124" r="3" fill="#e8f8ff" opacity="0.25"/><circle cx="877" cy="207" r="1" fill="#e8f8ff" opacity="0.36"/><circle cx="1026" cy="290" r="2" fill="#e8f8ff" opacity="0.47"/><circle cx="35" cy="373" r="3" fill="#e8f8ff" opacity="0.58"/><circle cx="184" cy="456" r="1" fill="#e8f8ff" opacity="0.69"/><circle cx="333" cy="539" r="2" fill="#e8f8ff" opacity="0.25"/><circle cx="482" cy="102" r="3" fill="#e8f8ff" opacity="0.36"/><circle cx="631" cy="185" r="1" fill="#e8f8ff" opacity="0.47"/><circle cx="780" cy="268" r="2" fill="#e8f8ff" opacity="0.58"/><circle cx="929" cy="351" r="3" fill="#e8f8ff" opacity="0.69"/><circle cx="1078" cy="434" r="1" fill="#e8f8ff" opacity="0.25"/><circle cx="87" cy="517" r="2" fill="#e8f8ff" opacity="0.36"/><circle cx="236" cy="80" r="3" fill="#e8f8ff" opacity="0.47"/><circle cx="385" cy="163" r="1" fill="#e8f8ff" opacity="0.58"/><circle cx="534" cy="246" r="2" fill="#e8f8ff" opacity="0.69"/><circle cx="683" cy="329" r="3" fill="#e8f8ff" opacity="0.25"/><circle cx="832" cy="412" r="1" fill="#e8f8ff" opacity="0.36"/><circle cx="981" cy="495" r="2" fill="#e8f8ff" opacity="0.47"/><circle cx="1130" cy="58" r="3" fill="#e8f8ff" opacity="0.58"/><circle cx="139" cy="141" r="1" fill="#e8f8ff" opacity="0.69"/><circle cx="288" cy="224" r="2" fill="#e8f8ff" opacity="0.25"/><circle cx="437" cy="307" r="3" fill="#e8f8ff" opacity="0.36"/></g>
  <ellipse cx="600" cy="310" rx="420" ry="250" fill="url(#glow)" opacity="0.12" filter="url(#softGlow)"/>
  <g id="scene-pre-warp" data-art-signature="surface-launchpad">
    <circle cx="1000" cy="150" r="46" fill="#89a6b0" opacity="0.62"/>
    <circle cx="1000" cy="150" r="59" fill="none" stroke="#c5dae1" stroke-width="2" opacity="0.18"/>
    <circle cx="600" cy="760" r="330" fill="#172c34"/>
    <circle cx="600" cy="760" r="326" fill="url(#accent)" opacity="0.26"/>
    <path d="M0 587 C230 542 370 550 520 579 C690 612 900 554 1200 585 L1200 675 H0 Z" fill="#0a1821"/>
    <path d="M0 587 C230 542 370 550 520 579 C690 612 900 554 1200 585" fill="none" stroke="#f0a14d" stroke-width="4" opacity="0.42"/>
    <g id="pre-warp-launchpad" transform="translate(220 300)">
      <rect x="0" y="195" width="405" height="30" rx="8" fill="#122a37" stroke="#f0a14d" stroke-width="3" opacity="0.95"/>
      <rect x="62" y="60" width="70" height="135" rx="8" fill="url(#metal)"/>
      <rect x="76" y="20" width="42" height="46" rx="5" fill="#284c5b" stroke="#f0a14d" stroke-width="3"/>
      <path d="M97 20 V-22 M79 -10 H115" stroke="#f0a14d" stroke-width="5" stroke-linecap="round"/>
      <path d="M190 190 V72 L228 20 L266 72 V190 Z" fill="#173341" stroke="#e9b46d" stroke-width="3"/>
      <path d="M228 36 L247 86 H209 Z" fill="#e9b46d" opacity="0.7"/>
      <rect x="310" y="110" width="54" height="80" rx="6" fill="#244652"/>
      <path d="M337 110 V72" stroke="#d8edf3" stroke-width="4"/>
      <path d="M307 72 Q337 40 367 72 Q337 90 307 72 Z" fill="#7f9eaa" stroke="#d8edf3" stroke-width="3"/>
    </g>
    <g id="pre-warp-orbital-satellite" transform="translate(840 280) rotate(-12)">
      <rect x="-20" y="-12" width="40" height="24" rx="4" fill="#a7c2cc"/>
      <rect x="-72" y="-18" width="44" height="36" fill="#356479" stroke="#f0a14d" stroke-width="2"/>
      <rect x="28" y="-18" width="44" height="36" fill="#356479" stroke="#f0a14d" stroke-width="2"/>
      <path d="M0 -12 V-42" stroke="#d7edf5" stroke-width="3"/>
      <circle cx="0" cy="-46" r="6" fill="#f0a14d"/>
    </g>
    <path d="M720 225 C810 168 900 164 982 188" fill="none" stroke="#f0a14d" stroke-width="2" stroke-dasharray="9 12" opacity="0.36"/>
  </g>
  <path d="M0 645 H1200" stroke="#f0a14d" stroke-width="2" opacity="0.12"/>
</svg>